<?xml version="1.0" standalone="no"?><!DOCTYPE svg PUBLIC "-//W3C//DTD SVG 1.1//EN" "http://www.w3.org/Graphics/SVG/1.1/DTD/svg11.dtd"><svg class="icon" width="200px" height="200.00px" viewBox="0 0 1024 1024" version="1.1" xmlns="http://www.w3.org/2000/svg"><path d="M736.4 229.5c25.9 0 46.8-21 46.8-46.8 0-25.9-21-46.8-46.8-46.8s-46.8 21-46.8 46.8c0 25.9 21 46.8 46.8 46.8z m108.2 173.4c0 30.7 24.9 55.6 55.6 55.6s55.6-24.9 55.6-55.6c0-30.7-24.9-55.6-55.6-55.6s-55.6 24.9-55.6 55.6z m-6.1-73.8c29.1 0 52.7-23.6 52.7-52.7s-23.6-52.7-52.7-52.7-52.7 23.6-52.7 52.7 23.6 52.7 52.7 52.7z m70.9 158.2c-27.6-1.8-52.6 19.5-54.5 47.7-12 179.4-162.4 320-342.5 320-189.2 0-343.2-154-343.2-343.2 0-183.3 143.3-333.9 326.2-342.8 28.3-1.4 50-25.4 48.7-53.6-1.4-28.3-25.6-50.4-53.6-48.7-237.6 11.5-423.7 207-423.7 445.1 0 245.7 199.9 445.7 445.7 445.7 233.8 0 429.1-182.6 444.7-415.6 1.8-28.3-19.6-52.7-47.8-54.6zM620.5 176.6c24.2 0 43.9-19.7 43.9-43.9s-19.7-43.9-43.9-43.9-43.9 19.7-43.9 43.9 19.7 43.9 43.9 43.9zM462.2 278.1v234.7c0 28.3 22.9 51.2 51.2 51.2h232.7c28.3 0 51.2-22.9 51.2-51.2s-22.9-51.2-51.2-51.2H564.6V278.1c0-28.3-22.9-51.2-51.2-51.2s-51.2 22.9-51.2 51.2z"  /></svg>