<?xml version="1.0" encoding="utf-8"?>
<svg version="1.1" xmlns:xlink="http://www.w3.org/1999/xlink" width="15px" height="15px" xmlns="http://www.w3.org/2000/svg">
  <g transform="matrix(1 0 0 1 -17 -115 )">
    <path d="M 4.58705357142857 0.594308035714285  C 5.51339285714286 0.198102678571428  6.484375 0  7.5 0  C 8.515625 0  9.48660714285714 0.198102678571428  10.4129464285714 0.594308035714285  C 11.3392857142857 0.990513392857142  12.1372767857143 1.5234375  12.8069196428571 2.19308035714286  C 13.4765625 2.86272321428571  14.0094866071429 3.66071428571428  14.4056919642857 4.58705357142857  C 14.8018973214286 5.51339285714286  15 6.484375  15 7.5  C 15 8.515625  14.8018973214286 9.48660714285714  14.4056919642857 10.4129464285714  C 14.0094866071429 11.3392857142857  13.4765625 12.1372767857143  12.8069196428571 12.8069196428571  C 12.1372767857143 13.4765625  11.3392857142857 14.0094866071429  10.4129464285714 14.4056919642857  C 9.48660714285714 14.8018973214286  8.515625 15  7.5 15  C 6.484375 15  5.51339285714286 14.8018973214286  4.58705357142857 14.4056919642857  C 3.66071428571429 14.0094866071429  2.86272321428571 13.4765625  2.19308035714286 12.8069196428571  C 1.5234375 12.1372767857143  0.990513392857143 11.3392857142857  0.594308035714286 10.4129464285714  C 0.198102678571429 9.48660714285714  0 8.515625  0 7.5  C 0 6.484375  0.198102678571429 5.51339285714286  0.594308035714286 4.58705357142857  C 0.990513392857143 3.66071428571428  1.5234375 2.86272321428571  2.19308035714286 2.19308035714286  C 2.86272321428571 1.5234375  3.66071428571429 0.990513392857142  4.58705357142857 0.594308035714285  Z M 10.5217633928571 1.82477678571429  C 9.56752232142857 1.32254464285714  8.56026785714286 1.07142857142857  7.5 1.07142857142857  C 6.43973214285714 1.07142857142857  5.43247767857143 1.32254464285714  4.47823660714286 1.82477678571429  L 6.10212053571429 3.44866071428571  C 6.55970982142857 3.29241071428571  7.02566964285714 3.21428571428571  7.5 3.21428571428571  C 7.97433035714286 3.21428571428571  8.44029017857143 3.29241071428571  8.89787946428572 3.44866071428571  L 10.5217633928571 1.82477678571429  Z M 1.07142857142857 7.5  C 1.07142857142857 8.56026785714286  1.32254464285714 9.56752232142857  1.82477678571429 10.5217633928571  L 3.44866071428571 8.89787946428572  C 3.29241071428571 8.44029017857143  3.21428571428571 7.97433035714286  3.21428571428571 7.5  C 3.21428571428571 7.02566964285714  3.29241071428571 6.55970982142857  3.44866071428571 6.10212053571429  L 1.82477678571429 4.47823660714286  C 1.32254464285714 5.43247767857143  1.07142857142857 6.43973214285714  1.07142857142857 7.5  Z M 4.47823660714286 13.1752232142857  C 5.43247767857143 13.6774553571429  6.43973214285714 13.9285714285714  7.5 13.9285714285714  C 8.56026785714286 13.9285714285714  9.56752232142857 13.6774553571429  10.5217633928571 13.1752232142857  L 8.89787946428572 11.5513392857143  C 8.44029017857143 11.7075892857143  7.97433035714286 11.7857142857143  7.5 11.7857142857143  C 7.02566964285714 11.7857142857143  6.55970982142857 11.7075892857143  6.10212053571429 11.5513392857143  L 4.47823660714286 13.1752232142857  Z M 5.22739955357143 9.77260044642857  C 5.85518973214286 10.400390625  6.61272321428571 10.7142857142857  7.5 10.7142857142857  C 8.38727678571428 10.7142857142857  9.14481026785714 10.400390625  9.77260044642857 9.77260044642857  C 10.400390625 9.14481026785714  10.7142857142857 8.38727678571428  10.7142857142857 7.5  C 10.7142857142857 6.61272321428571  10.400390625 5.85518973214286  9.77260044642857 5.22739955357143  C 9.14481026785714 4.599609375  8.38727678571428 4.28571428571429  7.5 4.28571428571429  C 6.61272321428571 4.28571428571429  5.85518973214286 4.599609375  5.22739955357143 5.22739955357143  C 4.599609375 5.85518973214286  4.28571428571429 6.61272321428571  4.28571428571429 7.5  C 4.28571428571429 8.38727678571428  4.599609375 9.14481026785714  5.22739955357143 9.77260044642857  Z M 11.7857142857143 7.5  C 11.7857142857143 7.97433035714286  11.7075892857143 8.44029017857143  11.5513392857143 8.89787946428572  L 13.1752232142857 10.5217633928571  C 13.6774553571429 9.56752232142857  13.9285714285714 8.56026785714286  13.9285714285714 7.5  C 13.9285714285714 6.43973214285714  13.6774553571429 5.43247767857143  13.1752232142857 4.47823660714286  L 11.5513392857143 6.10212053571429  C 11.7075892857143 6.55970982142857  11.7857142857143 7.02566964285714  11.7857142857143 7.5  Z " fill-rule="nonzero" fill="#000000" stroke="none" transform="matrix(1 0 0 1 17 115 )" />
  </g>
</svg>