<?xml version="1.0" encoding="utf-8"?>
<svg version="1.1" xmlns:xlink="http://www.w3.org/1999/xlink" width="12" height="14" xmlns="http://www.w3.org/2000/svg">
  <g transform="matrix(1 0 0 1 -19 -116 )">
    <path d="M 2.5390625 5.664062500000001  C 3.611979166666667 5.888020833333334  4.765625 6  6 6  C 7.234375 6  8.388020833333334 5.888020833333334  9.4609375 5.664062500000001  C 10.533854166666668 5.440104166666665  11.380208333333334 5.109374999999999  12 4.671874999999999  L 12 6  C 12 6.359375  11.731770833333332 6.692708333333333  11.1953125 7  C 10.658854166666668 7.307291666666665  9.9296875 7.550781249999999  9.0078125 7.73046875  C 8.0859375 7.91015625  7.083333333333334 8  6 8  C 4.916666666666667 8  3.9140625 7.91015625  2.9921875 7.73046875  C 2.0703125 7.550781249999999  1.3411458333333335 7.307291666666665  0.8046875 7  C 0.26822916666666663 6.692708333333333  0 6.359375  0 6  L 0 4.671874999999999  C 0.6197916666666667 5.109374999999999  1.4661458333333335 5.440104166666665  2.5390625 5.664062500000001  Z M 2.5390625 11.6640625  C 3.611979166666667 11.888020833333336  4.765625 12  6 12  C 7.234375 12  8.388020833333334 11.888020833333336  9.4609375 11.6640625  C 10.533854166666668 11.440104166666666  11.380208333333334 11.109375  12 10.671875  L 12 12  C 12 12.359375  11.731770833333332 12.692708333333334  11.1953125 13  C 10.658854166666668 13.307291666666666  9.9296875 13.55078125  9.0078125 13.73046875  C 8.0859375 13.91015625  7.083333333333334 14  6 14  C 4.916666666666667 14  3.9140625 13.91015625  2.9921875 13.73046875  C 2.0703125 13.55078125  1.3411458333333335 13.307291666666666  0.8046875 13  C 0.26822916666666663 12.692708333333334  0 12.359375  0 12  L 0 10.671875  C 0.6197916666666667 11.109375  1.4661458333333335 11.440104166666666  2.5390625 11.6640625  Z M 2.5390625 8.6640625  C 3.611979166666667 8.888020833333332  4.765625 9  6 9  C 7.234375 9  8.388020833333334 8.888020833333332  9.4609375 8.6640625  C 10.533854166666668 8.440104166666666  11.380208333333334 8.109375  12 7.671875  L 12 9  C 12 9.359375  11.731770833333332 9.692708333333332  11.1953125 10  C 10.658854166666668 10.307291666666668  9.9296875 10.55078125  9.0078125 10.73046875  C 8.0859375 10.91015625  7.083333333333334 11  6 11  C 4.916666666666667 11  3.9140625 10.91015625  2.9921875 10.73046875  C 2.0703125 10.55078125  1.3411458333333335 10.307291666666668  0.8046875 10  C 0.26822916666666663 9.692708333333332  0 9.359375  0 9  L 0 7.671875  C 0.6197916666666667 8.109375  1.4661458333333335 8.440104166666666  2.5390625 8.6640625  Z M 2.9921875 0.26953124999999933  C 3.9140625 0.08984374999999978  4.916666666666667 0  6 0  C 7.083333333333334 0  8.0859375 0.08984374999999978  9.0078125 0.26953124999999933  C 9.9296875 0.44921875000000044  10.658854166666668 0.6927083333333328  11.1953125 0.9999999999999996  C 11.731770833333332 1.3072916666666663  12 1.640625  12 2.000000000000001  L 12 3  C 12 3.359374999999999  11.731770833333332 3.6927083333333313  11.1953125 4  C 10.658854166666668 4.307291666666666  9.9296875 4.55078125  9.0078125 4.73046875  C 8.0859375 4.91015625  7.083333333333334 4.999999999999999  6 4.999999999999999  C 4.916666666666667 4.999999999999999  3.9140625 4.91015625  2.9921875 4.73046875  C 2.0703125 4.55078125  1.3411458333333335 4.307291666666666  0.8046875 4  C 0.26822916666666663 3.6927083333333313  0 3.359374999999999  0 3  L 0 2.000000000000001  C 0 1.640625  0.26822916666666663 1.3072916666666663  0.8046875 0.9999999999999996  C 1.3411458333333335 0.6927083333333328  2.0703125 0.44921875000000044  2.9921875 0.26953124999999933  Z " fill-rule="nonzero" fill="#040404" stroke="none" transform="matrix(1 0 0 1 19 116 )" />
  </g>
</svg>