<?xml version="1.0" encoding="utf-8"?>
<svg version="1.1" xmlns:xlink="http://www.w3.org/1999/xlink" width="15px" height="15px" xmlns="http://www.w3.org/2000/svg">
  <g transform="matrix(1 0 0 1 -17 -115 )">
    <path d="M 9.267578125 5.732421875000001  C 9.755859375 6.220703124999999  10 6.809895833333332  10 7.5  C 10 8.190104166666666  9.755859375 8.779296874999998  9.267578125 9.267578125000002  C 8.779296875 9.755859375  8.190104166666668 10.000000000000002  7.5 10.000000000000002  C 6.809895833333334 10.000000000000002  6.220703125 9.755859375  5.732421875 9.267578125000002  C 5.244140625 8.779296874999998  5 8.190104166666666  5 7.5  C 5 6.809895833333332  5.244140625 6.220703124999999  5.732421875 5.732421875000001  C 6.220703125 5.244140625  6.809895833333334 5.000000000000001  7.5 5.000000000000001  C 8.190104166666668 5.000000000000001  8.779296875 5.244140625  9.267578125 5.732421875000001  Z M 10.166015625 2.900390625  C 9.352213541666666 2.425130208333333  8.463541666666668 2.1875000000000004  7.5 2.1875000000000004  C 6.536458333333333 2.1875000000000004  5.647786458333334 2.425130208333333  4.833984375 2.900390625  C 4.020182291666667 3.375651041666665  3.375651041666667 4.020182291666665  2.900390625 4.833984375  C 2.4251302083333335 5.647786458333333  2.1875 6.536458333333332  2.1875 7.5  C 2.1875 8.463541666666668  2.4251302083333335 9.352213541666664  2.900390625 10.166015625  C 3.375651041666667 10.979817708333332  4.020182291666667 11.624348958333334  4.833984375 12.099609375  C 5.647786458333334 12.574869791666666  6.536458333333333 12.8125  7.5 12.8125  C 8.463541666666668 12.8125  9.352213541666666 12.574869791666666  10.166015625 12.099609375  C 10.979817708333336 11.624348958333334  11.624348958333336 10.979817708333332  12.099609375 10.166015625  C 12.574869791666666 9.352213541666664  12.8125 8.463541666666668  12.8125 7.5  C 12.8125 6.536458333333332  12.574869791666666 5.647786458333333  12.099609375 4.833984375  C 11.624348958333336 4.020182291666665  10.979817708333336 3.375651041666665  10.166015625 2.900390625  Z M 13.994140625 3.7353515625  C 14.664713541666664 4.884440104166665  15 6.139322916666664  15 7.5  C 15 8.860677083333334  14.664713541666664 10.115559895833332  13.994140625 11.2646484375  C 13.323567708333336 12.413736979166666  12.413736979166666 13.323567708333334  11.2646484375 13.994140625  C 10.115559895833336 14.664713541666668  8.860677083333334 15  7.5 15  C 6.139322916666667 15  4.884440104166667 14.664713541666668  3.7353515625 13.994140625  C 2.5862630208333335 13.323567708333334  1.676432291666667 12.413736979166666  1.005859375 11.2646484375  C 0.33528645833333326 10.115559895833332  0 8.860677083333334  0 7.5  C 0 6.139322916666664  0.33528645833333326 4.884440104166665  1.005859375 3.7353515625  C 1.676432291666667 2.586263020833333  2.5862630208333335 1.6764322916666652  3.7353515625 1.0058593749999996  C 4.884440104166667 0.33528645833333204  6.139322916666667 0  7.5 0  C 8.860677083333334 0  10.115559895833336 0.33528645833333204  11.2646484375 1.0058593749999996  C 12.413736979166666 1.6764322916666652  13.323567708333336 2.586263020833333  13.994140625 3.7353515625  Z " fill-rule="nonzero" stroke="none" transform="matrix(1 0 0 1 17 115 )" />
  </g>
</svg>