<?xml version="1.0" encoding="utf-8"?>
<svg version="1.1" xmlns:xlink="http://www.w3.org/1999/xlink" width="16" height="14" xmlns="http://www.w3.org/2000/svg">
  <g transform="matrix(1 0 0 1 -17 -67 )">
    <path d="M 4.705882352941177 10.078125  L 4.705882352941177 12.75  L 7.529411764705882 11.25  L 7.529411764705882 8.796875  L 4.705882352941177 10.078125  Z M 1.2647058823529411 7.851562499999999  L 4.235294117647059 9.203125  L 7.205882352941177 7.851562499999999  L 4.235294117647059 6.5  L 1.2647058823529411 7.851562499999999  Z M 12.235294117647058 10.078125  L 12.235294117647058 12.75  L 15.058823529411764 11.25  L 15.058823529411764 8.796875  L 12.235294117647058 10.078125  Z M 8.794117647058824 7.851562499999999  L 11.764705882352942 9.203125  L 14.735294117647058 7.851562499999999  L 11.764705882352942 6.5  L 8.794117647058824 7.851562499999999  Z M 8.470588235294118 4.828125  L 8.470588235294118 6.914062499999999  L 11.294117647058824 5.625  L 11.294117647058824 3.546875  L 8.470588235294118 4.828125  Z M 4.757352941176471 2.4765624999999996  L 8 3.9531249999999996  L 11.242647058823529 2.4765624999999996  L 8 0.9999999999999996  L 4.757352941176471 2.4765624999999996  Z M 15.845588235294118 7.453125  C 15.948529411764707 7.619791666666666  16 7.802083333333333  16 8  L 16 11.25  C 16 11.4375  15.953431372549021 11.611979166666666  15.860294117647058 11.7734375  C 15.767156862745098 11.934895833333334  15.639705882352942 12.057291666666668  15.477941176470589 12.140625  L 12.183823529411764 13.890625  C 12.061274509803923 13.963541666666666  11.92156862745098 14  11.764705882352942 14  C 11.607843137254903 14  11.468137254901961 13.963541666666666  11.345588235294118 13.890625  L 8.051470588235293 12.140625  C 8.03186274509804 12.130208333333334  8.014705882352942 12.119791666666664  8 12.109375  C 7.9901960784313735 12.119791666666664  7.973039215686276 12.130208333333334  7.948529411764706 12.140625  L 4.654411764705882 13.890625  C 4.5318627450980395 13.963541666666666  4.392156862745098 14  4.235294117647059 14  C 4.07843137254902 14  3.938725490196079 13.963541666666666  3.8161764705882355 13.890625  L 0.5220588235294118 12.140625  C 0.3602941176470588 12.057291666666668  0.23284313725490197 11.934895833333334  0.13970588235294118 11.7734375  C 0.04656862745098039 11.611979166666666  0 11.4375  0 11.25  L 0 8  C 0 7.802083333333333  0.05269607843137254 7.619791666666666  0.15808823529411764 7.453125  C 0.26348039215686275 7.286458333333334  0.4019607843137255 7.161458333333334  0.5735294117647058 7.078125000000001  L 3.764705882352941 5.625  L 3.764705882352941 2.5000000000000004  C 3.764705882352941 2.302083333333332  3.817401960784314 2.1197916666666665  3.922794117647059 1.9531250000000004  C 4.028186274509804 1.7864583333333328  4.166666666666667 1.6614583333333317  4.338235294117647 1.5781250000000002  L 7.632352941176471 0.07812499999999933  C 7.745098039215687 0.026041666666668517  7.867647058823529 0  8 0  C 8.132352941176471 0  8.254901960784315 0.026041666666668517  8.367647058823529 0.07812499999999933  L 11.661764705882353 1.5781250000000002  C 11.833333333333334 1.6614583333333317  11.971813725490197 1.7864583333333328  12.077205882352942 1.9531250000000004  C 12.182598039215687 2.1197916666666665  12.235294117647058 2.302083333333332  12.235294117647058 2.5000000000000004  L 12.235294117647058 5.625  L 15.426470588235293 7.078125000000001  C 15.602941176470589 7.161458333333334  15.742647058823529 7.286458333333334  15.845588235294118 7.453125  Z " fill-rule="nonzero"  stroke="none" transform="matrix(1 0 0 1 17 67 )" />
  </g>
</svg>