<?xml version="1.0" encoding="utf-8"?>
<svg version="1.1" xmlns:xlink="http://www.w3.org/1999/xlink" width="15" height="14" xmlns="http://www.w3.org/2000/svg">
  <g transform="matrix(1 0 0 1 -18 -212 )">
    <path d="M 6.4140625 8.434980124929018  C 6.8046875 8.03747870528109  7 7.557826992239258  7 6.996024985803522  C 7 6.4342229793677825  6.8046875 5.954571266325951  6.4140625 5.557069846678024  C 6.0234375 5.159568427030096  5.552083333333334 4.960817717206133  5 4.960817717206133  C 4.447916666666667 4.960817717206133  3.9765625000000004 5.159568427030096  3.5859375 5.557069846678024  C 3.1953125 5.954571266325951  3 6.4342229793677825  3 6.996024985803522  C 3 7.557826992239258  3.1953125 8.03747870528109  3.5859375 8.434980124929018  C 3.9765625000000004 8.832481544576943  4.447916666666667 9.031232254400908  5 9.031232254400908  C 5.552083333333334 9.031232254400908  6.0234375 8.832481544576943  6.4140625 8.434980124929018  Z M 12.70703125 11.785917092561046  C 12.90234375 11.587166382737081  13 11.347340526216163  13 11.066439522998296  C 13 10.790838538709066  12.901041666666668 10.55233768692031  12.703125 10.350936967632027  C 12.505208333333334 10.149536248343743  12.270833333333334 10.048835888699603  12 10.048835888699603  C 11.729166666666668 10.048835888699603  11.494791666666668 10.149536248343743  11.296875 10.350936967632027  C 11.098958333333334 10.55233768692031  11 10.790838538709066  11 11.066439522998296  C 11 11.347340526216163  11.09765625 11.587166382737081  11.29296875 11.785917092561046  C 11.48828125 11.984667802385008  11.723958333333334 12.08404315729699  12 12.08404315729699  C 12.276041666666668 12.08404315729699  12.51171875 11.984667802385008  12.70703125 11.785917092561046  Z M 12.70703125 3.645088018171494  C 12.90234375 3.4463373083475304  13 3.2065114518266133  13 2.9256104486087455  C 13 2.650009464319515  12.901041666666668 2.411508612530758  12.703125 2.2101078932424763  C 12.505208333333334 2.008707173954192  12.270833333333334 1.908006814310051  12 1.908006814310051  C 11.729166666666668 1.908006814310051  11.494791666666668 2.008707173954192  11.296875 2.2101078932424763  C 11.098958333333334 2.411508612530758  11 2.650009464319515  11 2.9256104486087455  C 11 3.2065114518266133  11.09765625 3.4463373083475304  11.29296875 3.645088018171494  C 11.48828125 3.8438387279954576  11.723958333333334 3.943214082907439  12 3.943214082907439  C 12.276041666666668 3.943214082907439  12.51171875 3.8438387279954576  12.70703125 3.645088018171494  Z M 9.9453125 6.1175468483816005  C 9.981770833333334 6.162597009275034  10 6.214272193829263  10 6.272572402044293  L 10 7.743327654741623  C 10 7.7963278440280135  9.981770833333334 7.8480030285822435  9.9453125 7.898353208404314  C 9.908854166666668 7.948703388226386  9.8671875 7.97652848760174  9.8203125 7.9818285065303805  L 8.609375 8.172629187961386  C 8.552083333333334 8.358129850463751  8.46875 8.559530569752033  8.359375 8.776831345826235  C 8.536458333333334 9.031232254400908  8.770833333333334 9.33598334279765  9.0625 9.691084611016468  C 9.098958333333334 9.749384819231496  9.1171875 9.802385008517888  9.1171875 9.850085178875638  C 9.1171875 9.913685406019308  9.098958333333334 9.964035585841378  9.0625 10.001135718341851  C 8.942708333333334 10.160136286201022  8.727864583333334 10.397312133257618  8.41796875 10.712663259511642  C 8.108072916666668 11.028014385765665  7.903645833333333 11.185689948892676  7.804687499999999 11.185689948892676  C 7.747395833333334 11.185689948892676  7.692708333333334 11.167139882642438  7.640625 11.130039750141965  L 6.7421875 10.414537194775695  C 6.549479166666667 10.515237554419837  6.348958333333334 10.597387847813742  6.140625 10.66098807495741  C 6.083333333333334 11.233390119250426  6.0234375 11.644141586219952  5.9609375 11.893242475865986  C 5.924479166666667 12.020442930153322  5.846354166666667 12.08404315729699  5.7265625 12.08404315729699  L 4.2734375 12.08404315729699  C 4.216145833333334 12.08404315729699  4.1640625 12.064168086314593  4.1171875 12.024417944349802  C 4.0703125 11.984667802385008  4.044270833333334 11.938292636759417  4.0390625 11.885292447473027  L 3.8593749999999996 10.668938103350369  C 3.682291666666667 10.615937914063979  3.486979166666667 10.533787620670074  3.2734375 10.422487223168655  L 2.3515625 11.130039750141965  C 2.315104166666667 11.167139882642438  2.2630208333333335 11.185689948892676  2.1953125 11.185689948892676  C 2.1380208333333335 11.185689948892676  2.0833333333333335 11.164489873178118  2.03125 11.122089721749006  C 1.28125 10.417187204240015  0.90625 9.993185689948893  0.90625 9.850085178875638  C 0.90625 9.802385008517888  0.9244791666666667 9.752034828695816  0.9609374999999999 9.699034639409426  C 1.0130208333333335 9.62483437440848  1.1197916666666667 9.484383872799546  1.28125 9.277683134582624  C 1.4427083333333335 9.0709823963657  1.565104166666667 8.90933181904221  1.6484375 8.792731402612153  C 1.5286458333333335 8.559530569752033  1.4375 8.342229793677834  1.375 8.14082907438955  L 0.1875 7.950028392958546  C 0.13541666666666669 7.944728374029906  0.09114583333333334 7.919553284118872  0.0546875 7.874503123225441  C 0.018229166666666664 7.829452962332008  0 7.777777777777779  0 7.719477569562748  L 0 6.248722316865417  C 0 6.195722127579026  0.018229166666666664 6.144046943024796  0.0546875 6.0936967632027255  C 0.09114583333333334 6.0433465833806554  0.1328125 6.0155214840052995  0.1796875 6.010221465076661  L 1.390625 5.819420783645656  C 1.4479166666666667 5.633920121143289  1.53125 5.432519401855007  1.640625 5.215218625780806  C 1.4635416666666667 4.960817717206133  1.2291666666666667 4.656066628809387  0.9375 4.300965360590574  C 0.9010416666666667 4.242665152375542  0.8828125 4.189664963089154  0.8828125 4.141964792731403  C 0.8828125 4.0783645655877345  0.9010416666666667 4.025364376301343  0.9375 3.982964224872232  C 1.0520833333333335 3.823963657013061  1.265625 3.5881128146886225  1.578125 3.2754116978989205  C 1.890625 2.962710581109217  2.096354166666667 2.8063600227143675  2.1953125 2.8063600227143675  C 2.252604166666667 2.8063600227143675  2.307291666666667 2.824910088964603  2.359375 2.862010221465077  L 3.2578125 3.5775127768313455  C 3.4348958333333335 3.482112436115843  3.635416666666667 3.3973121332576186  3.8593749999999996 3.323111868256672  C 3.916666666666667 2.750709823963658  3.9765624999999996 2.3426083664584496  4.0390625 2.098807495741056  C 4.075520833333334 1.9716070414537195  4.153645833333334 1.908006814310051  4.2734375 1.908006814310051  L 5.7265625 1.908006814310051  C 5.783854166666667 1.908006814310051  5.8359375 1.9278818852924482  5.8828125 1.967632027257241  C 5.9296875 2.007382169222032  5.955729166666667 2.0537573348476235  5.9609375 2.106757524134015  L 6.140625 3.323111868256672  C 6.317708333333334 3.376112057543062  6.513020833333334 3.458262350936967  6.7265625 3.569562748438387  L 7.6484375 2.862010221465077  C 7.690104166666668 2.824910088964603  7.742187500000001 2.8063600227143675  7.804687499999999 2.8063600227143675  C 7.861979166666667 2.8063600227143675  7.916666666666667 2.8275600984289215  7.96875 2.869960249858036  C 8.71875 3.5748627673670255  9.09375 3.9988642816581486  9.09375 4.141964792731403  C 9.09375 4.184364944160514  9.075520833333334 4.234715123982584  9.0390625 4.293015332197616  C 8.9765625 4.377815635055837  8.8671875 4.520916146129092  8.7109375 4.722316865417377  C 8.5546875 4.92371758470566  8.4375 5.08271815256483  8.359375 5.199318568994888  C 8.479166666666668 5.453719477569562  8.567708333333334 5.6710202536437615  8.625 5.85122089721749  L 9.8125 6.034071550255536  C 9.864583333333334 6.044671588112814  9.908854166666668 6.07249668748817  9.9453125 6.1175468483816005  Z M 13.8359375 10.263486655309483  C 14.611979166666668 10.342986939239069  15.000000000000004 10.425137232632974  15 10.509937535491199  L 15 11.622941510505395  C 15.000000000000004 11.70774181336362  14.611979166666668 11.789892106757524  13.8359375 11.869392390687109  C 13.7734375 12.012492901760364  13.6953125 12.150293393904978  13.6015625 12.282793867120954  C 13.8671875 12.881696006057163  14 13.247397312133257  14 13.379897785349232  C 14 13.40109786106379  13.989583333333334 13.419647927314026  13.96875 13.435547984099943  C 13.333333333333334 13.811849328033313  13.010416666666668 14  13 14  C 12.958333333333336 14  12.838541666666668 13.875449555176981  12.640625 13.626348665530948  C 12.442708333333334 13.377247775884914  12.307291666666668 13.197047132311186  12.234375 13.085746734809767  C 12.130208333333334 13.096346772667045  12.052083333333334 13.101646791595686  12 13.101646791595686  C 11.947916666666668 13.101646791595686  11.869791666666668 13.096346772667045  11.765625 13.085746734809767  C 11.692708333333334 13.197047132311186  11.557291666666668 13.377247775884914  11.359375 13.626348665530948  C 11.161458333333334 13.875449555176981  11.041666666666668 14  11 14  C 10.989583333333334 14  10.666666666666668 13.811849328033313  10.03125 13.435547984099943  C 10.010416666666668 13.419647927314026  10 13.40109786106379  10 13.379897785349232  C 10 13.247397312133257  10.1328125 12.881696006057163  10.3984375 12.282793867120954  C 10.3046875 12.150293393904978  10.2265625 12.012492901760364  10.1640625 11.869392390687109  C 9.388020833333334 11.789892106757524  9 11.70774181336362  9 11.622941510505395  L 9 10.509937535491199  C 9 10.425137232632974  9.388020833333334 10.342986939239069  10.1640625 10.263486655309483  C 10.231770833333334 10.10978610637895  10.309895833333334 9.971985614234335  10.3984375 9.850085178875638  C 10.1328125 9.251183039939427  10 8.885481733863333  10 8.752981260647358  C 10 8.731781184932803  10.010416666666668 8.713231118682568  10.03125 8.69733106189665  C 10.052083333333334 8.68673102403937  10.143229166666668 8.633730834752981  10.3046875 8.53833049403748  C 10.466145833333334 8.442930153321976  10.619791666666668 8.35282983153511  10.765625 8.268029528676887  C 10.911458333333334 8.183229225818662  10.989583333333334 8.14082907438955  11 8.14082907438955  C 11.041666666666668 8.14082907438955  11.161458333333334 8.264054514480408  11.359375 8.510505394662124  C 11.557291666666668 8.756956274843839  11.692708333333334 8.935831913685407  11.765625 9.047132311186827  C 11.869791666666668 9.036532273329549  11.947916666666668 9.031232254400908  12 9.031232254400908  C 12.052083333333334 9.031232254400908  12.130208333333334 9.036532273329549  12.234375 9.047132311186827  C 12.500000000000002 8.670830967253453  12.739583333333336 8.374029907249668  12.953125 8.156729131175469  L 13 8.14082907438955  C 13.020833333333336 8.14082907438955  13.343750000000002 8.326329736891918  13.96875 8.69733106189665  C 13.989583333333334 8.713231118682568  14 8.731781184932803  14 8.752981260647358  C 14 8.885481733863333  13.8671875 9.251183039939427  13.6015625 9.850085178875638  C 13.690104166666668 9.971985614234335  13.768229166666668 10.10978610637895  13.8359375 10.263486655309483  Z M 13.8359375 2.122657580919932  C 14.611979166666668 2.2021578648495175  15.000000000000004 2.2843081582434213  15 2.3691084611016473  L 15 3.482112436115843  C 15.000000000000004 3.566912738974067  14.611979166666668 3.6490630323679722  13.8359375 3.728563316297558  C 13.7734375 3.8716638273708117  13.6953125 4.009464319515426  13.6015625 4.141964792731403  C 13.8671875 4.740866931667613  14 5.106568237743706  14 5.239068710959682  C 14 5.260268786674237  13.989583333333334 5.278818852924474  13.96875 5.294718909710391  C 13.333333333333334 5.6710202536437615  13.010416666666668 5.8591709256104485  13 5.8591709256104485  C 12.958333333333336 5.8591709256104485  12.838541666666668 5.73462048078743  12.640625 5.485519591141396  C 12.442708333333334 5.236418701495362  12.307291666666668 5.056218057921635  12.234375 4.9449176604202165  C 12.130208333333334 4.955517698277493  12.052083333333334 4.960817717206133  12 4.960817717206133  C 11.947916666666668 4.960817717206133  11.869791666666668 4.955517698277493  11.765625 4.9449176604202165  C 11.692708333333334 5.056218057921635  11.557291666666668 5.236418701495362  11.359375 5.485519591141396  C 11.161458333333334 5.73462048078743  11.041666666666668 5.8591709256104485  11 5.8591709256104485  C 10.989583333333334 5.8591709256104485  10.666666666666668 5.6710202536437615  10.03125 5.294718909710391  C 10.010416666666668 5.278818852924474  10 5.260268786674237  10 5.239068710959682  C 10 5.106568237743706  10.1328125 4.740866931667613  10.3984375 4.141964792731403  C 10.3046875 4.009464319515426  10.2265625 3.8716638273708117  10.1640625 3.728563316297558  C 9.388020833333334 3.6490630323679722  9 3.566912738974067  9 3.482112436115843  L 9 2.3691084611016473  C 9 2.2843081582434213  9.388020833333334 2.2021578648495175  10.1640625 2.122657580919932  C 10.231770833333334 1.9689570319893994  10.309895833333334 1.831156539844784  10.3984375 1.7092561044860872  C 10.1328125 1.1103539655498758  10 0.7446526594737823  10 0.6121521862578085  C 10 0.5909521105432514  10.010416666666668 0.5724020442930158  10.03125 0.5565019875070987  C 10.052083333333334 0.5459019496498185  10.143229166666668 0.49290176036343025  10.3046875 0.3975014196479276  C 10.466145833333334 0.302101078932425  10.619791666666668 0.21200075714555933  10.765625 0.12720045428733684  C 10.911458333333334 0.042400151429111244  10.989583333333334 0  11 0  C 11.041666666666668 0  11.161458333333334 0.12322544009085679  11.359375 0.3696763202725719  C 11.557291666666668 0.616127200454287  11.692708333333334 0.7950028392958552  11.765625 0.906303236797275  C 11.869791666666668 0.8957031989399948  11.947916666666668 0.8904031800113579  12 0.8904031800113579  C 12.052083333333334 0.8904031800113579  12.130208333333334 0.8957031989399948  12.234375 0.906303236797275  C 12.500000000000002 0.5300018928639014  12.739583333333336 0.2332008328601165  12.953125 0.015900056785917105  L 13 0  C 13.020833333333336 0  13.343750000000002 0.1855006625023652  13.96875 0.5565019875070987  C 13.989583333333334 0.5724020442930158  14 0.5909521105432514  14 0.6121521862578085  C 14 0.7446526594737823  13.8671875 1.1103539655498758  13.6015625 1.7092561044860872  C 13.690104166666668 1.831156539844784  13.768229166666668 1.9689570319893994  13.8359375 2.122657580919932  Z " fill-rule="nonzero" fill="#000000" stroke="none" transform="matrix(1 0 0 1 18 212 )" />
  </g>
</svg>