<?xml version="1.0" encoding="utf-8"?>
<svg version="1.1" xmlns:xlink="http://www.w3.org/1999/xlink" width="14px" height="14px" xmlns="http://www.w3.org/2000/svg">
  <g transform="matrix(1 0 0 1 -17 -68 )">
    <path d="M 7.53846153846154 6.30168269230769  L 7.53846153846154 12.6286057692308  L 12.9230769230769 9.69230769230769  L 12.9230769230769 4.34134615384615  L 7.53846153846154 6.30168269230769  Z M 1.12740384615385 3.21394230769231  L 7 5.35096153846154  L 12.8725961538462 3.21394230769231  L 7 1.07692307692308  L 1.12740384615385 3.21394230769231  Z M 13.8064903846154 2.61658653846154  C 13.9354967948718 2.80168269230769  14 3.00641025641026  14 3.23076923076923  L 14 9.69230769230769  C 14 9.8886217948718  13.9495192307692 10.0709134615385  13.8485576923077 10.2391826923077  C 13.7475961538462 10.4074519230769  13.6101762820513 10.5392628205128  13.4362980769231 10.6346153846154  L 7.51322115384615 13.8653846153846  C 7.35616987179487 13.9551282051282  7.18509615384615 14  7 14  C 6.81490384615385 14  6.64383012820513 13.9551282051282  6.48677884615385 13.8653846153846  L 0.563701923076923 10.6346153846154  C 0.389823717948718 10.5392628205128  0.252403846153846 10.4074519230769  0.151442307692308 10.2391826923077  C 0.0504807692307692 10.0709134615385  0 9.8886217948718  0 9.69230769230769  L 0 3.23076923076923  C 0 3.00641025641026  0.0645032051282051 2.80168269230769  0.193509615384615 2.61658653846154  C 0.322516025641026 2.43149038461538  0.493589743589744 2.29967948717949  0.706730769230769 2.22115384615385  L 6.62980769230769 0.0673076923076921  C 6.75320512820513 0.0224358974358958  6.87660256410257 0  7 0  C 7.12339743589744 0  7.24679487179487 0.0224358974358958  7.37019230769231 0.0673076923076921  L 13.2932692307692 2.22115384615385  C 13.5064102564103 2.29967948717949  13.677483974359 2.43149038461538  13.8064903846154 2.61658653846154  Z " fill-rule="nonzero"  stroke="none" transform="matrix(1 0 0 1 17 68 )" />
  </g>
</svg>