<?xml version="1.0" standalone="no"?><!DOCTYPE svg PUBLIC "-//W3C//DTD SVG 1.1//EN" "http://www.w3.org/Graphics/SVG/1.1/DTD/svg11.dtd"><svg class="icon" width="200px" height="200.00px" viewBox="0 0 1024 1024" version="1.1" xmlns="http://www.w3.org/2000/svg"><path d="M482.256 660.496a135.2 135.2 0 1 1 135.2-135.2 135.264 135.264 0 0 1-135.2 135.2z m0-196.528a61.328 61.328 0 1 0 61.328 61.328 61.168 61.168 0 0 0-61.328-61.312z"  /><path d="M429.824 316.96a131.504 131.504 0 1 1 131.504-131.504 131.808 131.808 0 0 1-131.504 131.504z m0-196.528a65.008 65.008 0 1 0 65.008 65.024 65.104 65.104 0 0 0-65.008-65.024z"  /><path d="M163.504 899.152a131.504 131.504 0 1 1 131.504-131.504 131.808 131.808 0 0 1-131.504 131.504z m0-196.528a65.008 65.008 0 1 0 65.008 65.008 65.104 65.104 0 0 0-65.008-65.008z"  /><path d="M860.48 859.984a131.504 131.504 0 1 1 131.504-131.504 131.792 131.792 0 0 1-131.504 131.504z m0-196.528a65.008 65.008 0 1 0 65.008 65.024 65.104 65.104 0 0 0-65.008-65.024z"  /><path d="M779.216 468.432a106.384 106.384 0 1 1 106.416-106.416 106.416 106.416 0 0 1-106.416 106.416z m0-154.416a47.28 47.28 0 1 0 47.216 47.216 47.136 47.136 0 0 0-47.216-47.232z"  /><path d="M508.448 981.904a106.384 106.384 0 1 1 106.384-106.384 106.416 106.416 0 0 1-106.384 106.384z m0-154.416a47.28 47.28 0 1 0 47.216 47.216 47.136 47.136 0 0 0-47.216-47.232z"  /><path d="M162.768 454.368a78.32 78.32 0 1 1 78.32-78.32 78.832 78.832 0 0 1-78.32 78.32z m0-104.912a26.592 26.592 0 1 0 26.592 26.592 26.48 26.48 0 0 0-26.592-26.592z"  /><path d="M247.04 728.48a28.336 28.336 0 0 1-21.952-9.936 25.248 25.248 0 0 1 4.8-37.104l159.792-120.592a27.344 27.344 0 0 1 38.4 4.64 25.264 25.264 0 0 1-4.8 37.104l-159.792 120.592a30.256 30.256 0 0 1-16.448 5.296z"  /><path d="M395.472 513.488a25.856 25.856 0 0 1-12.112-2.768l-177.472-80.784a26.624 26.624 0 0 1-13.536-36.592 28.224 28.224 0 0 1 37.776-13.12l177.472 80.784a26.624 26.624 0 0 1 13.536 36.592 27.92 27.92 0 0 1-25.664 15.888z"  /><path d="M467.328 458.064a29.488 29.488 0 0 1-29.552-25.12l-20.688-146.288a29.472 29.472 0 1 1 58.368-8.128l20.688 146.288a29.296 29.296 0 0 1-25.12 33.248z"  /><path d="M576.528 512.832a23.536 23.536 0 0 1-21.552-13.856 26.528 26.528 0 0 1 9.904-35.632l132.448-78.496a23.136 23.136 0 0 1 33.264 10.56 26.528 26.528 0 0 1-9.856 35.616l-132.432 78.496a26.208 26.208 0 0 1-11.776 3.312z"  /><path d="M510.112 815.152a30.064 30.064 0 0 1-29.552-26.192l-15.52-162.944a29.696 29.696 0 0 1 59.104-5.824l15.52 162.944a29.904 29.904 0 0 1-26.592 32z"  /><path d="M771.248 706.24a28.144 28.144 0 0 1-12.896-3.392l-198.304-110.4a26.88 26.88 0 1 1 26.48-46.752l198.304 110.4a26.752 26.752 0 0 1 10.192 36.576 29.184 29.184 0 0 1-23.776 13.568z"  /></svg>