<svg t="1667354831352" class="icon" viewBox="0 0 1024 1024" version="1.1" xmlns="http://www.w3.org/2000/svg" p-id="5801" width="200" height="200"><path d="M972.8 819.2c30.72 0 51.2 20.48 51.2 51.2v51.2c0 56.32-46.08 102.4-102.4 102.4H102.4c-56.32 0-102.4-46.08-102.4-102.4V102.4C0 46.08 46.08 0 102.4 0h819.2c56.32 0 102.4 46.08 102.4 102.4v51.2c0 30.72-20.48 51.2-51.2 51.2s-51.2-20.48-51.2-51.2V102.4H102.4v819.2h819.2v-51.2c0-30.72 20.48-51.2 51.2-51.2z" p-id="5802"></path><path d="M1024 512c0-5.12 0-15.36-5.12-20.48 0-5.12-5.12-10.24-10.24-15.36l-143.36-143.36c-20.48-20.48-51.2-20.48-71.68 0-20.48 20.48-20.48 51.2 0 71.68L849.92 460.8H563.2c-30.72 0-51.2 20.48-51.2 51.2s20.48 51.2 51.2 51.2h286.72l-56.32 56.32c-20.48 20.48-20.48 51.2 0 71.68 20.48 20.48 51.2 20.48 71.68 0l143.36-143.36c5.12-5.12 10.24-10.24 10.24-15.36 5.12-5.12 5.12-15.36 5.12-20.48z" p-id="5803"></path></svg>
