<svg xmlns="http://www.w3.org/2000/svg" width="24" height="24" viewBox="0 0 24 24">
  <defs>
    <style>
      .cls-1 {
        fill: #d0d0d0;
        fill-rule: evenodd;
      }
    </style>
  </defs>
  <g id="画板_1" data-name="画板 1">
    <path id="矩形_34_拷贝_4" data-name="矩形 34 拷贝 4" class="cls-1" d="M18,23H6a2,2,0,0,1-2-2V11A2,2,0,0,1,6,9H7V7H7.115A4.828,4.828,0,0,1,7,6,5,5,0,0,1,17,6a4.83,4.83,0,0,1-.116,1H17V9h1a2,2,0,0,1,2,2V21A2,2,0,0,1,18,23Zm-7-6a1,1,0,1,0,2,0V14a1,1,0,1,0-2,0v3Zm5-8.033h0V7H15.859A3.952,3.952,0,0,0,16,6,4,4,0,1,0,8.141,7H8V8.967H8V9h8V8.967ZM17,10h0Z"/>
  </g>
</svg>
