<svg version="1.1" width="37" height="28"
  xmlns="http://www.w3.org/2000/svg">
  <g transform="matrix(1 0 0 1 -271 -155 )">
    <path d="M 6.9375 14  L 11.5625 14  L 11.5625 23.3333333333333  L 6.9375 23.3333333333333  L 6.9375 14  Z M 14 4.66666666666667  L 18 4.66666666666667  L 18 23.3333333333333  L 14 23.3333333333333  L 14 4.66666666666667  Z M 3 25.6666666666667  L 37 25.6666666666667  L 37 28  L 0 28  L 0 0  L 3 0  L 3 25.6666666666667  Z M 20.8125 9.33333333333333  L 25 9.33333333333333  L 25 23.3333333333333  L 20.8125 23.3333333333333  L 20.8125 9.33333333333333  Z M 27.75 2.33333333333333  L 32 2.33333333333333  L 32 23.3333333333333  L 27.75 23.3333333333333  L 27.75 2.33333333333333  Z " fill-rule="nonzero" fill="currentColor" stroke="none" transform="matrix(1 0 0 1 271 155 )" />
  </g>
</svg>