<?xml version="1.0" standalone="no"?><!DOCTYPE svg PUBLIC "-//W3C//DTD SVG 1.1//EN" "http://www.w3.org/Graphics/SVG/1.1/DTD/svg11.dtd">
<svg class="icon" width="200px" height="200.00px" viewBox="0 0 1024 1024" version="1.1"
    xmlns="http://www.w3.org/2000/svg">
    <path  d="M832 144H656v48h176a16 16 0 0 1 16 16v688a16 16 0 0 1-16 16H192a16 16 0 0 1-16-16V208a16 16 0 0 1 16-16h224V144H192a64 64 0 0 0-64 64v688a64 64 0 0 0 64 64h640a64 64 0 0 0 64-64V208a64 64 0 0 0-64-64z" />
    <path  d="M672 64H400a32 32 0 0 0-32 32v144a32 32 0 0 0 32 32h272a32 32 0 0 0 32-32V96a32 32 0 0 0-32-32z m-16 160H416V112h240zM264 656h496a24 24 0 0 1 0 48h-496a24 24 0 0 1 0-48zM264 768h496a24 24 0 0 1 0 48h-496a24 24 0 0 1 0-48z" />
    <path d="M512 624h-1.44a16 16 0 0 1-13.92-11.52L430.4 387.2l-48 130.24a16 16 0 0 1-14.4 10.56h-112a16 16 0 0 1 0-32h100.8l60.16-165.44a16 16 0 0 1 29.92 0.96l68.48 232.96 29.92-59.68A16 16 0 0 1 560 496h208a16 16 0 0 1 0 32H569.92l-43.68 87.2A16 16 0 0 1 512 624z"  />
</svg>